<svg id="图层_1" data-name="图层 1" xmlns="http://www.w3.org/2000/svg" viewBox="0 0 620.65 157.28"><defs><style>.cls-1,.cls-6{fill:#00a2e9;}.cls-2{fill:#008fd7;}.cls-3{fill:#f08519;}.cls-4{fill:#899e7b;}.cls-5{fill:#4ba8e1;}.cls-6{font-size:33.43px;font-family:Aileron-HeavyItalic, Aileron;font-weight:800;font-style:italic;}</style></defs><path class="cls-1" d="M263.72,134.59l-2.93-2.31L241.93,145.1H214l19.78-13.51h-12l4.27-30h92.2L319.34,94h-60l-1.74,3H226.9l9.64-16.75L232.91,76h36.92l-1.74,3h75.07l-2.54,18-2.85,4.51h11.39l-4.28,30H287.61l8.59,7,.75,3.31,50.35-5.59L345,153.15l-29.9,3.42,25.79,32.07H315.41L297,165.14,295,180a13.84,13.84,0,0,1-4.51,8.38,12,12,0,0,1-8.18,3.27h-29l17-16.75v-5l-24.9,18.76H218.48l52.1-35.88.48-3.79L202.75,189.1l-27.9,1.3,88.93-55.81Zm7.34-15,1.1-6H245.09l-.85,6Zm27.51-6-1,6H326l.84-6Z" transform="translate(-174.85 -34.65)"/><polygon class="cls-1" points="190.39 155.76 206.91 86.8 190.39 86.8 192.51 71.41 226.82 71.41 215.83 135.57 228.11 132.44 220.92 157.05 190.39 155.76"/><path class="cls-1" d="M500.14,79.26h-81.5l-2.1,15.37h20.58l-4.19,29.79H413.87l-2.21,15.4h19.11l-7.32,52.09h14.88l7.32-52.09h29.29l-7.32,52.09h16.69c0-.06,11.79-.39,11.79-.39,4-18.22-9.45-16.29-9.44-16.34S499.85,81.31,500.14,79.26ZM477.24,124H447.69l4.19-29.84,29.55.07Z" transform="translate(-174.85 -34.65)"/><path d="M235.58,145.1" transform="translate(-174.85 -34.65)"/><polygon class="cls-2" points="332.04 151.41 343.2 95.92 360.19 95.92 349.03 151.41 332.04 151.41"/><polygon class="cls-1" points="406.23 61.09 385.46 62.74 383.68 75.42 406.72 75.43 404.45 91.51 381.42 91.5 372.23 156.88 355.52 156.88 364.71 91.5 340.63 91.51 342.89 75.43 366.97 75.43 368.58 63.95 345.65 65.66 347.92 49.58 408.5 45.01 406.23 61.09"/><polygon class="cls-2" points="379.99 151.41 385.18 95.92 401.21 95.92 395.87 151.41 379.99 151.41"/><path class="cls-1" d="M645.72,159.57l-8.91,1.26-4.54,30.9-19.69-.2,4-28.18-39.18,5.21,2.43-16.87,39.13-5.2,9.59-68.25H648.8L639.24,144l8.91-1.26Z" transform="translate(-174.85 -34.65)"/><polygon class="cls-3" points="434.58 107.74 410.45 107.74 407.53 86.94 431.67 86.94 434.58 107.74"/><polygon class="cls-3" points="439.61 76.06 415.47 76.06 412.23 55.25 436.36 55.25 439.61 76.06"/><path class="cls-1" d="M686,78.15h19.85l-2.54,18.06h12.19l-2.27,15-12-.42-3,20.29L711,127.57l-2.43,16.55-12.43,3.4-6.19,44H670.1c1.66-12.82,3.77-25.77,5.43-38.6L658,157.52,660.46,141l17.6-6,3.34-23.76H664.67l2.27-15H683.5Z" transform="translate(-174.85 -34.65)"/><path class="cls-1" d="M736.54,137.82,752,154.17,772.16,139l.63-5.11H716L718,120h30.35l1.79-12.76H718.78l2.1-15h31.34l1.95-13.87h18.34l-2,13.86H795.5l-2.11,15H768.45L766.66,120H791.6l-4.17,29.64-23.79,17.1L787,191.53H760.34l-11.87-12.86-17.7,12.86H702.9L735.77,165l-20.72-21.17,1-6Z" transform="translate(-174.85 -34.65)"/><circle class="cls-3" cx="214.45" cy="53.6" r="12.21"/><path d="M183.73,152.36" transform="translate(-174.85 -34.65)"/><path class="cls-4" d="M180.38,84.32a.46.46,0,0,1-.45-.09v0a.31.31,0,0,1,.23,0A.3.3,0,0,1,180.38,84.32Z" transform="translate(-174.85 -34.65)"/><path class="cls-5" d="M180.16,84.2h-.22a.17.17,0,0,1,0-.1A.23.23,0,0,1,180.16,84.2Z" transform="translate(-174.85 -34.65)"/><path class="cls-5" d="M179.94,84.09a.13.13,0,0,1-.14-.08A.11.11,0,0,1,179.94,84.09Z" transform="translate(-174.85 -34.65)"/><text class="cls-6" transform="translate(69 28.25)">PHCENT.COM</text></svg>